<?xml version="1.0" standalone="no"?>
<!DOCTYPE svg PUBLIC "-//W3C//DTD SVG 20010904//EN"
 "http://www.w3.org/TR/2001/REC-SVG-20010904/DTD/svg10.dtd">
<svg version="1.0" xmlns="http://www.w3.org/2000/svg"
 width="1200.000000pt" height="1239.000000pt" viewBox="0 0 1200.000000 1239.000000"
 preserveAspectRatio="xMidYMid meet">

<g transform="translate(0.000000,1239.000000) scale(0.100000,-0.100000)"
fill="#000000" stroke="none">
<path d="M5810 12193 c-1722 -54 -3337 -846 -4437 -2178 -1041 -1259 -1517
-2871 -1332 -4510 198 -1761 1176 -3345 2670 -4328 855 -563 1813 -887 2854
-968 83 -6 281 -11 440 -11 319 0 572 17 855 58 1472 211 2829 976 3771 2124
1104 1345 1568 3070 1289 4788 -286 1758 -1348 3303 -2895 4212 -210 123 -565
296 -795 387 -534 211 -1054 340 -1611 398 -158 16 -554 36 -659 33 -36 -1
-103 -3 -150 -5z m2968 -3627 c122 -43 183 -151 183 -322 0 -84 -49 -323 -496
-2431 -273 -1286 -505 -2371 -516 -2411 -60 -224 -178 -315 -356 -278 -90 18
-154 51 -273 139 -660 489 -1392 1027 -1398 1027 -4 0 -187 -174 -407 -385
-426 -411 -459 -437 -567 -451 l-48 -7 0 44 c0 24 23 368 50 764 l51 720 32
31 c18 17 219 200 447 405 228 206 721 651 1095 989 374 338 792 716 930 840
137 124 264 240 282 258 92 91 -16 145 -152 75 -16 -9 -800 -501 -1743 -1095
-943 -594 -1720 -1082 -1727 -1084 -16 -7 -1517 462 -1578 493 -69 34 -125 89
-138 134 -26 84 55 188 202 260 41 20 722 287 1514 592 2122 818 3639 1403
3990 1539 171 66 342 131 380 144 82 27 182 31 243 10z"/>
</g>
</svg>
